<?xml version="1.0" encoding="UTF-8"?>
<svg version="1.1" xmlns="http://www.w3.org/2000/svg" width="2328" height="662">
<path d="M0 0 C1.95992153 -0.00373937 3.91984157 -0.00834203 5.87975925 -0.01373065 C11.25151163 -0.0259408 16.62320164 -0.02570251 21.99496472 -0.02334189 C27.79408735 -0.02293322 33.59319012 -0.03397776 39.39230347 -0.04345703 C50.74925013 -0.06005759 62.10617603 -0.06556617 73.46313382 -0.06668179 C82.69759288 -0.06763279 91.9320451 -0.07174573 101.166502 -0.07808304 C103.82774303 -0.07987212 106.48898406 -0.08165535 109.1502251 -0.08343279 C109.8118837 -0.08387489 110.4735423 -0.08431699 111.15525116 -0.08477248 C129.76004545 -0.09707639 148.36483742 -0.10497408 166.96963596 -0.10408592 C168.02121488 -0.10403919 168.02121488 -0.10403919 169.09403781 -0.10399151 C172.64699164 -0.1038253 176.19994547 -0.10362722 179.7528993 -0.10342209 C180.45848482 -0.1033822 181.16407035 -0.10334231 181.89103726 -0.10330121 C183.31790331 -0.10322034 184.74476936 -0.10313674 186.17163541 -0.10305043 C208.36070126 -0.10182551 230.54970593 -0.11682911 252.73875427 -0.14419556 C277.68869669 -0.17495468 302.63859891 -0.19212571 327.58856148 -0.19026911 C340.79107874 -0.18952928 353.99352996 -0.19507122 367.19603157 -0.21662521 C378.43854445 -0.23486205 389.68095708 -0.2391638 400.92347837 -0.22560637 C406.6552033 -0.21908917 412.38673604 -0.21891447 418.11844254 -0.23631287 C423.37486824 -0.25210385 428.63095033 -0.24911855 433.88736796 -0.2317446 C435.77968895 -0.22868793 437.67203597 -0.23225626 439.56432623 -0.24346475 C467.09291072 -0.3956045 491.00259847 8.09165125 511.02854919 27.43148804 C523.62902165 40.13696443 532.28862272 54.9718615 536.84104919 72.26742554 C537.01366701 72.88611399 537.18628482 73.50480245 537.36413348 74.14223903 C539.52970322 83.11517798 539.1250512 92.25886335 539.10847473 101.42637634 C539.1122141 103.38629787 539.11681676 105.34621791 539.12220538 107.30613559 C539.13441553 112.67788797 539.13417724 118.04957798 539.13181663 123.42134106 C539.13140795 129.2204637 539.14245249 135.01956647 539.15193176 140.81867981 C539.16853232 152.17562648 539.1740409 163.53255238 539.17515652 174.88951016 C539.17610753 184.12396922 539.18022046 193.35842144 539.18655777 202.59287834 C539.18834685 205.25411937 539.19013008 207.91536041 539.19190753 210.57660145 C539.19257067 211.56908934 539.19257067 211.56908934 539.19324721 212.5816275 C539.20555112 231.18642179 539.21344881 249.79121376 539.21256065 268.39601231 C539.2125295 269.09706492 539.21249834 269.79811753 539.21246624 270.52041415 C539.21230003 274.07336798 539.21210195 277.62632181 539.21189682 281.17927564 C539.21183699 282.23765393 539.21183699 282.23765393 539.21177594 283.3174136 C539.21169507 284.74427965 539.21161147 286.17114571 539.21152516 287.59801176 C539.21030024 309.7870776 539.22530384 331.97608227 539.25267029 354.16513062 C539.28342941 379.11507303 539.30060044 404.06497525 539.29874384 429.01493782 C539.29800401 442.21745509 539.30354595 455.4199063 539.32509995 468.62240791 C539.34333678 479.86492079 539.34763854 491.10733343 539.3340811 502.34985472 C539.3275639 508.08157964 539.3273892 513.81311239 539.3447876 519.54481888 C539.36057858 524.80124458 539.35759328 530.05732667 539.34021933 535.3137443 C539.33716266 537.20606529 539.34073099 539.09841231 539.35193948 540.99070258 C539.50407923 568.51928706 531.01682348 592.42897481 511.67698669 612.45492554 C498.9715103 625.05539799 484.13661324 633.71499906 466.84104919 638.26742554 C466.22236074 638.44004335 465.60367229 638.61266116 464.9662357 638.79050982 C455.99329675 640.95607956 446.84961138 640.55142754 437.68209839 640.53485107 C435.72217686 640.53859044 433.76225682 640.5431931 431.80233914 640.54858172 C426.43058676 640.56079188 421.05889675 640.56055358 415.68713367 640.55819297 C409.88801104 640.5577843 404.08890826 640.56882883 398.28979492 640.57830811 C386.93284826 640.59490866 375.57592235 640.60041724 364.21896457 640.60153286 C354.98450551 640.60248387 345.75005329 640.6065968 336.51559639 640.61293411 C333.85435536 640.6147232 331.19311432 640.61650643 328.53187329 640.61828387 C327.87021469 640.61872596 327.20855609 640.61916806 326.52684723 640.61962355 C307.92205294 640.63192747 289.31726097 640.63982515 270.71246243 640.638937 C269.66088351 640.63889026 269.66088351 640.63889026 268.58806058 640.63884258 C265.03510675 640.63867637 261.48215292 640.63847829 257.92919909 640.63827316 C257.22361356 640.63823327 256.51802804 640.63819338 255.79106113 640.63815228 C254.36419508 640.63807141 252.93732903 640.63798781 251.51046297 640.6379015 C229.32139713 640.63667658 207.13239246 640.65168018 184.94334412 640.67904663 C159.9934017 640.70980576 135.04349948 640.72697678 110.09353691 640.72512019 C96.89101965 640.72438035 83.68856843 640.72992229 70.48606682 640.75147629 C59.24355394 640.76971313 48.00114131 640.77401488 36.75862002 640.76045744 C31.02689509 640.75394024 25.29536234 640.75376555 19.56365585 640.77116394 C14.30723015 640.78695493 9.05114806 640.78396962 3.79473043 640.76659568 C1.90240944 640.763539 0.01006242 640.76710734 -1.88222785 640.77831583 C-29.41081233 640.93045558 -53.32050008 632.44319982 -73.34645081 613.10336304 C-85.94692326 600.39788665 -94.60652433 585.56298958 -99.15895081 568.26742554 C-99.33156862 567.64873708 -99.50418643 567.03004863 -99.68203509 566.39261204 C-101.84760483 557.41967309 -101.44295281 548.27598772 -101.42637634 539.10847473 C-101.43011571 537.1485532 -101.43471837 535.18863317 -101.44010699 533.22871548 C-101.45231714 527.8569631 -101.45207885 522.4852731 -101.44971824 517.11351001 C-101.44930956 511.31438738 -101.4603541 505.51528461 -101.46983337 499.71617126 C-101.48643393 488.3592246 -101.49194251 477.0022987 -101.49305813 465.64534091 C-101.49400914 456.41088185 -101.49812207 447.17642963 -101.50445938 437.94197273 C-101.50624846 435.2807317 -101.50803169 432.61949067 -101.50980914 429.95824963 C-101.51025123 429.29659103 -101.51069333 428.63493243 -101.51114882 427.95322358 C-101.52345273 409.34842928 -101.53135042 390.74363731 -101.53046227 372.13883877 C-101.53043111 371.43778616 -101.53039995 370.73673355 -101.53036785 370.01443692 C-101.53020164 366.46148309 -101.53000356 362.90852926 -101.52979843 359.35557543 C-101.52975854 358.64998991 -101.52971865 357.94440438 -101.52967755 357.21743747 C-101.52959668 355.79057142 -101.52951308 354.36370537 -101.52942677 352.93683932 C-101.52820185 330.74777347 -101.54320545 308.5587688 -101.5705719 286.36972046 C-101.60133102 261.41977804 -101.61850205 236.46987582 -101.61664546 211.51991326 C-101.61590562 198.31739599 -101.62144756 185.11494477 -101.64300156 171.91244316 C-101.66123839 160.66993028 -101.66554015 149.42751765 -101.65198271 138.18499636 C-101.64546551 132.45327143 -101.64529082 126.72173869 -101.66268921 120.9900322 C-101.67848019 115.73360649 -101.67549489 110.4775244 -101.65812095 105.22110678 C-101.65506427 103.32878579 -101.6586326 101.43643876 -101.6698411 99.5441485 C-101.82198085 72.01556401 -93.33472509 48.10587626 -73.99488831 28.07992554 C-61.28941191 15.47945308 -46.45451485 6.81985201 -29.15895081 2.26742554 C-28.54026235 2.09480772 -27.9215739 1.92218991 -27.28413731 1.74434125 C-18.31119836 -0.42122849 -9.16751299 -0.01657647 0 0 Z " fill="#0EAF9C" transform="translate(101.15895080566406,21.732574462890625)"/>
<path d="M0 0 C3.45390359 2.88473919 6.74998177 5.88863442 10 9 C11.10214844 10.00740234 11.10214844 10.00740234 12.2265625 11.03515625 C34.50697189 32.09526053 49.90415968 64.65776374 51.13422108 95.34894085 C51.1406313 97.10131164 51.1406313 97.10131164 51.14717102 98.88908386 C51.15084771 99.54561095 51.1545244 100.20213804 51.1583125 100.87855989 C51.16924646 103.05861519 51.17317531 105.23862269 51.17700195 107.41870117 C51.18327385 108.98957975 51.18992128 110.56045687 51.19691467 112.1313324 C51.21785192 117.2685342 51.22829982 122.40573599 51.23828125 127.54296875 C51.24233114 129.31448189 51.24644813 131.08599488 51.25063133 132.85750771 C51.26965159 141.17300796 51.28389539 149.48849945 51.2922433 157.80401725 C51.30203732 167.40030665 51.32842621 176.99636672 51.36874419 186.59257525 C51.39886452 194.01607403 51.41370784 201.43950682 51.41702431 208.86306554 C51.41937727 213.29537717 51.42837125 217.72744288 51.45348549 222.15968895 C51.47670327 226.32371037 51.48102512 230.4873227 51.47072411 234.65139198 C51.47022728 236.18004846 51.47659093 237.70872469 51.49028015 239.23731995 C51.50791301 241.32266326 51.50093805 243.40652403 51.48774719 245.49186707 C51.49013555 246.65898318 51.4925239 247.8260993 51.49498463 249.02858257 C50.89508775 252.62979345 49.85960571 253.80173573 47 256 C37.25661371 258.21218787 26.21337972 254.03964078 17.8125 249.3125 C4.81271986 240.87108433 -5.18386349 228.95584573 -8.5365448 213.53158569 C-9.16885781 208.71328268 -9.14436388 203.96252443 -9.1418457 199.10791016 C-9.14532013 198.02082764 -9.14879456 196.93374512 -9.15237427 195.8137207 C-9.15971465 193.45659519 -9.16506917 191.09946284 -9.16866493 188.74232864 C-9.17585853 184.99884777 -9.19154927 181.25549584 -9.21000671 177.51205444 C-9.26232281 166.86921015 -9.31081406 156.22646113 -9.32592773 145.58349609 C-9.33606902 139.06656422 -9.36555188 132.54995666 -9.40724754 126.03315353 C-9.41947839 123.56233561 -9.42469345 121.09147172 -9.42244911 118.62062454 C-9.40633344 95.07661202 -12.18377124 75.56183327 -28 57 C-28.721875 56.01 -29.44375 55.02 -30.1875 54 C-39.37552334 43.2309207 -54.49230444 35.55202365 -68 32 C-68.71671875 31.79632813 -69.4334375 31.59265625 -70.171875 31.3828125 C-89.33864936 26.68759596 -110.37511368 30.79906152 -127.14355469 40.81103516 C-144.9689443 52.2273486 -155.84577658 69.64742545 -161 90 C-162.23831473 95.7311457 -162.16169307 101.39998463 -162.16796875 107.234375 C-162.17129715 108.30874817 -162.17462555 109.38312134 -162.17805481 110.49005127 C-162.18310349 112.75264051 -162.18546377 115.01523716 -162.18530273 117.27783203 C-162.18750111 120.75175005 -162.20571101 124.22535637 -162.22460938 127.69921875 C-162.22754126 129.89843641 -162.22952743 132.09765558 -162.23046875 134.296875 C-162.23765427 135.33954529 -162.24483978 136.38221558 -162.25224304 137.45648193 C-162.2476281 138.89873138 -162.2476281 138.89873138 -162.24291992 140.37011719 C-162.24434494 141.21805847 -162.24576996 142.06599976 -162.24723816 142.93963623 C-162.18839378 145.22348863 -162.18839378 145.22348863 -160 147 C-157.09424954 147.21228452 -154.28626071 147.30396095 -151.37890625 147.30078125 C-150.52320541 147.30506638 -149.66750458 147.3093515 -148.78587341 147.31376648 C-146.97436407 147.31951468 -145.16283164 147.32000644 -143.35131836 147.31567383 C-140.57691095 147.3125164 -137.80357214 147.33595741 -135.02929688 147.36132812 C-133.27083468 147.36360129 -131.51236961 147.36430453 -129.75390625 147.36328125 C-128.50692711 147.37709587 -128.50692711 147.37709587 -127.23475647 147.39118958 C-123.00486335 147.46612075 -123.00486335 147.46612075 -119.27801514 145.75003052 C-117.66747232 143.5446583 -117.63832447 142.34152444 -117.6628418 139.62719727 C-117.66241379 138.74520157 -117.66198578 137.86320587 -117.6615448 136.95448303 C-117.6739772 136.00141769 -117.68640961 135.04835236 -117.69921875 134.06640625 C-117.6915683 132.03450198 -117.68307698 130.00260074 -117.67382812 127.97070312 C-117.67602634 124.77815896 -117.68729343 121.5862263 -117.71508789 118.39379883 C-117.87521154 94.76727891 -117.87521154 94.76727891 -111 86 C-104.27103522 79.22202161 -97.24163467 75.12617486 -87.625 74.5625 C-78.90808214 74.91239374 -70.08384136 78.74347319 -64 85 C-58.05807782 93.082571 -56.85077163 99.51241408 -56.85282898 109.30604553 C-56.84915229 110.24671244 -56.8454756 111.18737934 -56.8416875 112.1565513 C-56.83066964 115.31018362 -56.82681012 118.46378297 -56.82299805 121.61743164 C-56.81673226 123.87766118 -56.81008536 126.13788968 -56.80308533 128.39811707 C-56.78569347 134.53838602 -56.77512977 140.67864721 -56.7668798 146.81893468 C-56.76172865 150.65278906 -56.75565315 154.48664102 -56.74936867 158.3204937 C-56.73250751 168.93640511 -56.71786976 179.5523144 -56.71061993 190.16823673 C-56.7087101 192.92018192 -56.70678975 195.67212711 -56.70483398 198.42407227 C-56.70435024 199.10803691 -56.7038665 199.79200156 -56.7033681 200.49669241 C-56.69505774 211.59028316 -56.66969941 222.68376644 -56.63725331 233.7773102 C-56.6042094 245.1680191 -56.58650689 256.55865401 -56.58297569 267.94941801 C-56.58062016 274.34463179 -56.57159347 280.73967535 -56.54651451 287.13484383 C-56.52332232 293.1455474 -56.51896482 299.15596755 -56.52927589 305.16670418 C-56.52977343 307.37585388 -56.52338942 309.58501714 -56.50971985 311.7941246 C-56.49213622 314.80340687 -56.49904019 317.8116568 -56.51225281 320.82093811 C-56.50128356 321.70079425 -56.49031432 322.5806504 -56.47901267 323.48716885 C-56.54177342 329.38271324 -56.54177342 329.38271324 -58.88912678 332.54488277 C-63.52707866 335.74202584 -69.93027901 334.32246293 -75.25 333.4375 C-89.57965739 329.78533953 -101.35821322 320.9375928 -109.46484375 308.69140625 C-114.44403464 299.96198506 -117.14882484 291.96709485 -117.1418457 281.97436523 C-117.14532013 281.16905365 -117.14879456 280.36374207 -117.15237427 279.5340271 C-117.15971575 277.78852971 -117.16506969 276.04302309 -117.16866493 274.29751396 C-117.17583869 271.53648696 -117.19150992 268.7756368 -117.21000671 266.0146637 C-117.26244929 258.16580552 -117.31049714 250.31704741 -117.32592773 242.46801758 C-117.33598872 237.66513075 -117.36525842 232.86269363 -117.40724754 228.05998421 C-117.41958294 226.22875425 -117.42467418 224.39746087 -117.42244911 222.56619072 C-117.42010549 220.00904868 -117.44218699 217.45320696 -117.4699707 214.89624023 C-117.46336929 214.13719894 -117.45676788 213.37815765 -117.44996643 212.59611511 C-117.5082221 209.34066784 -117.55519597 207.48786458 -119.79544067 205.03074646 C-123.22712432 203.42625538 -126.66596854 203.57262846 -130.37890625 203.6015625 C-131.1873851 203.59869232 -131.99586395 203.59582214 -132.82884216 203.59286499 C-134.53425804 203.5908273 -136.23969744 203.59633658 -137.94506836 203.60888672 C-140.55700786 203.62496619 -143.16740495 203.60901811 -145.77929688 203.58984375 C-147.43750342 203.59182583 -149.095709 203.59566876 -150.75390625 203.6015625 C-151.92585289 203.59245346 -151.92585289 203.59245346 -153.12147522 203.5831604 C-156.04026222 203.62109374 -158.40407202 203.67034082 -160.9921875 205.10205078 C-162.53064413 207.99932835 -162.36916868 210.50155674 -162.37109375 213.765625 C-162.38851897 215.14583527 -162.4061027 216.52604355 -162.42382812 217.90625 C-162.43376296 220.05798918 -162.43753273 222.20956732 -162.43579102 224.36132812 C-162.46631538 241.79684578 -165.85472163 256.90703417 -178.0390625 270.12890625 C-188.16724177 279.79304543 -201.11387315 286.07151431 -215.125 286.25 C-216.34445313 286.27578125 -217.56390625 286.3015625 -218.8203125 286.328125 C-222 286 -222 286 -223.67492104 284.94529057 C-225.68826997 281.98958092 -225.41312406 279.00033664 -225.38095093 275.54722595 C-225.3856309 274.78148791 -225.39031087 274.01574988 -225.39513266 273.22680765 C-225.40712994 270.65225133 -225.39760658 268.0782227 -225.38818359 265.50366211 C-225.39224771 263.66052438 -225.39758868 261.81738908 -225.40411377 259.97425842 C-225.41782662 254.95679818 -225.41246859 249.93952242 -225.40297651 244.92205882 C-225.39538336 239.66137744 -225.40242616 234.40071191 -225.40713501 229.14002991 C-225.41260077 220.28855562 -225.405387 211.43715627 -225.39111328 202.58569336 C-225.37486076 192.39022691 -225.38001783 182.19494114 -225.3965925 171.99947923 C-225.41027468 163.22891838 -225.41209207 154.45841149 -225.40427649 145.68784338 C-225.39962701 140.45808912 -225.39889779 135.22841923 -225.40888596 129.99867058 C-225.41764886 125.06480693 -225.41136626 120.13117174 -225.39420319 115.19733238 C-225.39028426 113.40044277 -225.39129193 111.60353346 -225.39799118 109.80665207 C-225.5265897 71.75958455 -211.94753277 36.99891522 -185.125 9.75 C-135.16721193 -39.50290199 -54.79436922 -43.68551715 0 0 Z " fill="#FEFEFE" transform="translate(407,190)"/>
<path d="M0 0 C14.85 0 29.7 0 45 0 C45 34.98 45 69.96 45 106 C86.25 106 127.5 106 170 106 C170 71.02 170 36.04 170 0 C184.85 0 199.7 0 215 0 C215 86.46 215 172.92 215 262 C200.15 262 185.3 262 170 262 C170 223.06 170 184.12 170 144 C128.75 144 87.5 144 45 144 C45 182.94 45 221.88 45 262 C30.15 262 15.3 262 0 262 C0 175.54 0 89.08 0 0 Z " fill="#071233" transform="translate(804,94)"/>
<path d="M0 0 C13.86 0 27.72 0 42 0 C42.33 47.85 42.66 95.7 43 145 C50.425 138.07 50.425 138.07 58 131 C63.1875 126.3125 63.1875 126.3125 65.55078125 124.19921875 C68.34229483 121.69264435 71.11107525 119.16188649 73.875 116.625 C74.37652588 116.16472412 74.87805176 115.70444824 75.39477539 115.23022461 C76.93017579 113.82050367 78.46516493 112.41033641 80 111 C86.41988333 105.10086766 92.85499485 99.22153622 99.34765625 93.40234375 C101.36745606 91.57292271 103.37378579 89.7326279 105.37109375 87.87890625 C105.95189697 87.33999756 106.5327002 86.80108887 107.13110352 86.24584961 C108.26731992 85.18980303 109.40200232 84.13210284 110.53491211 83.07250977 C118.55309256 75.61848458 118.55309256 75.61848458 124.50292969 75.65942383 C126.15418854 75.65976372 126.15418854 75.65976372 127.83880615 75.66011047 C129.02121887 75.67559433 130.20363159 75.69107819 131.421875 75.70703125 C132.63699768 75.71127609 133.85212036 75.71552094 135.10406494 75.71989441 C138.98626839 75.73669124 142.86795336 75.77434662 146.75 75.8125 C149.38150292 75.82754548 152.01301398 75.84123412 154.64453125 75.85351562 C161.09653117 75.88659815 167.54822854 75.93680821 174 76 C172.31472395 79.62822218 170.4235087 81.62620613 167.375 84.25 C164.10022714 87.12013139 160.92377853 90.01572983 157.875 93.125 C155.35707997 95.68328749 152.78666743 98.10019658 150.0625 100.4375 C147.07198284 103.00665271 144.26883316 105.69317256 141.5 108.5 C138.13885518 111.9071879 134.66298797 115.07458174 131.03125 118.1875 C128.76361428 120.2109288 126.6342305 122.33653347 124.5 124.5 C121.7514401 127.28621141 118.97140209 129.95308392 116 132.5 C111.42356624 136.42658017 107.22547647 140.7030399 103 145 C101.6678156 146.33448127 100.33483568 147.66817071 99 149 C99.73863281 149.969375 100.47726563 150.93875 101.23828125 151.9375 C107.4523395 160.13373541 113.43832103 168.44015233 119.2265625 176.94140625 C126.11176684 187.04931624 133.24996949 196.98082746 140.4375 206.875 C144.94080557 213.07546696 149.32104772 219.3471525 153.625 225.6875 C158.80239237 233.31355449 164.17260119 240.76787897 169.65625 248.17529297 C172.02437715 251.39102377 174.35920176 254.63036347 176.6875 257.875 C177.33948364 258.77762573 177.33948364 258.77762573 178.00463867 259.69848633 C181 263.88268716 181 263.88268716 181 265 C173.99607337 265.48615655 166.99653705 265.81609285 159.97949219 266.04370117 C157.5999109 266.13863299 155.22142021 266.26785797 152.84570312 266.43334961 C133.69432448 267.73290745 133.69432448 267.73290745 127.58267212 263.21176147 C123.33765168 258.80284064 120.27540391 253.81356356 117.376297 248.45231628 C115.19555972 244.56663061 112.56287103 241.03015629 109.9375 237.4375 C108.9543228 236.04226921 107.97353104 234.64535165 106.99609375 233.24609375 C103.87066325 228.80165532 100.68886353 224.39905214 97.5 220 C93.24824832 214.13398748 89.0397629 208.2405807 84.875 202.3125 C79.35800978 194.46132803 73.70504647 186.71528922 68 179 C61.85187996 183.21929807 56.74708666 188.08879815 51.56958008 193.41674805 C51.0361499 193.96371338 50.50271973 194.51067871 49.953125 195.07421875 C49.48036133 195.56494873 49.00759766 196.05567871 48.52050781 196.5612793 C47 198 47 198 44.93908691 199.20144653 C42.73377039 200.8883279 42.73377039 200.8883279 42.48101807 203.79045105 C42.4676944 205.48588799 42.4676944 205.48588799 42.45410156 207.21557617 C42.43438293 208.4966777 42.41466431 209.77777924 42.39434814 211.09770203 C42.39268498 212.49612383 42.39145411 213.8945462 42.390625 215.29296875 C42.37564556 216.72359595 42.3589189 218.15420584 42.34051514 219.58479309 C42.2968018 223.34785753 42.27683408 227.11068872 42.26177979 230.8739624 C42.23878355 235.39040003 42.18634949 239.90657991 42.13883972 244.42281342 C42.06998437 251.28194298 42.03856996 258.14033202 42 265 C28.14 265 14.28 265 0 265 C0 177.55 0 90.1 0 0 Z " fill="#071233" transform="translate(2147,91)"/>
<path d="M0 0 C11.43146925 10.52957819 20.07146473 27.16061468 20.79101658 42.81345081 C20.79009479 43.78225524 20.78917299 44.75105967 20.78822327 45.7492218 C20.79028526 47.42553429 20.79028526 47.42553429 20.79238892 49.13571167 C20.78879364 50.35203278 20.78519836 51.56835388 20.78149414 52.8215332 C20.78164017 54.10973465 20.78178619 55.3979361 20.78193665 56.72517395 C20.78222315 60.24957287 20.77635011 63.77393764 20.76936269 67.29832864 C20.76310475 70.98454378 20.76252342 74.67075974 20.76133728 78.35697937 C20.75823116 85.33376595 20.75002747 92.31053683 20.73998779 99.2873165 C20.72880432 107.23165639 20.72331057 115.17599704 20.71829236 123.12034285 C20.70784426 139.45914545 20.68950771 155.79792643 20.66796875 172.13671875 C7.13796875 172.13671875 -6.39203125 172.13671875 -20.33203125 172.13671875 C-20.66203125 164.54671875 -20.99203125 156.95671875 -21.33203125 149.13671875 C-22.67265625 150.66296875 -24.01328125 152.18921875 -25.39453125 153.76171875 C-36.6373466 166.15674809 -50.21644688 174.04259661 -67.26757812 175.36425781 C-88.97501942 176.41589802 -108.68665437 174.44336844 -125.76953125 159.69921875 C-136.39987115 149.49890878 -142.3904987 137.99948253 -143.33203125 123.13671875 C-143.46452038 107.43675704 -139.78265114 93.58604826 -129.18359375 81.734375 C-104.74057795 57.98161048 -65.67296217 56.88798865 -33.796875 53.87109375 C-33.01752594 53.79631805 -32.23817688 53.72154236 -31.43521118 53.64450073 C-27.72203875 53.3020607 -24.06166718 53.04986485 -20.33203125 53.13671875 C-21.6651312 40.80554426 -23.64176464 30.59032277 -33.33203125 22.13671875 C-41.47634075 16.90204021 -50.05770495 14.74924415 -59.64453125 14.82421875 C-60.38437256 14.8284082 -61.12421387 14.83259766 -61.88647461 14.83691406 C-70.96713185 15.02277836 -82.27283151 16.97831902 -88.92578125 23.76171875 C-90.33203125 25.13671875 -90.33203125 25.13671875 -92.33203125 25.13671875 C-92.76708984 26.01457031 -92.76708984 26.01457031 -93.2109375 26.91015625 C-93.88927613 28.25737931 -94.58089712 29.59817854 -95.296875 30.92578125 C-98.1900332 36.3867626 -99.47703356 40.95339313 -101.33203125 47.13671875 C-114.86203125 47.13671875 -128.39203125 47.13671875 -142.33203125 47.13671875 C-140.28337087 28.69877535 -131.93818305 12.18943177 -117.79296875 -0.0625 C-83.83392549 -27.01920685 -33.8786896 -27.06890274 0 0 Z M-26.65136719 84.62402344 C-27.54700378 84.73123718 -28.44264038 84.83845093 -29.36541748 84.94891357 C-33.50910836 85.45396581 -37.65205506 85.96476339 -41.79443359 86.48046875 C-43.96413702 86.74858003 -46.13438262 87.01234409 -48.30517578 87.27148438 C-74.33288303 89.4519216 -74.33288303 89.4519216 -96.26953125 101.94921875 C-100.66871101 108.74795111 -102.41189446 115.01320236 -101.33203125 123.13671875 C-99.55921389 130.29130309 -96.59249842 135.17306867 -90.33203125 139.13671875 C-80.70005281 144.35318468 -68.4585239 144.54273477 -57.8671875 142.453125 C-51.28666162 140.41206099 -45.78081685 137.32004743 -40.33203125 133.13671875 C-39.51734375 132.54117188 -38.70265625 131.945625 -37.86328125 131.33203125 C-27.42763761 122.28136501 -21.78468607 108.6203353 -20.33203125 95.13671875 C-20.19491104 91.46189699 -20.20409144 87.81143439 -20.33203125 84.13671875 C-22.48179565 84.13671875 -24.51611324 84.36798064 -26.65136719 84.62402344 Z " fill="#071233" transform="translate(1877.33203125,183.86328125)"/>
<path d="M0 0 C13.52122189 12.80385802 21.6464241 28.62593751 22.17326355 47.38703918 C22.18181268 49.72652604 22.17432348 52.06611159 22.15307617 54.40551758 C22.15351425 55.69488724 22.15395233 56.9842569 22.15440369 58.31269836 C22.1552545 61.80368288 22.13777958 65.29434984 22.11668181 68.78526139 C22.09776009 72.45006026 22.0961525 76.11486868 22.09260559 79.77970886 C22.08333016 86.69962515 22.0587783 93.61939701 22.02855712 100.53925008 C21.99487176 108.42571718 21.97849179 116.31219166 21.96347082 124.19871294 C21.93222394 140.40340618 21.87726924 156.6079008 21.8125 172.8125 C8.2825 172.8125 -5.2475 172.8125 -19.1875 172.8125 C-19.5175 165.2225 -19.8475 157.6325 -20.1875 149.8125 C-23.6525 154.2675 -23.6525 154.2675 -27.1875 158.8125 C-44.19376166 174.04778148 -64.08619235 177.0818849 -86.12939453 176.03564453 C-104.04524519 174.72835669 -118.90323006 167.20674621 -130.9609375 153.84765625 C-140.71568993 141.74086961 -143.09390296 127.7048145 -141.71875 112.515625 C-139.71674258 98.56045564 -133.9345901 87.06991798 -123.08984375 77.9375 C-97.24417719 59.01415867 -63.39894395 57.45687022 -32.65234375 54.546875 C-31.87299469 54.4720993 -31.09364563 54.39732361 -30.29067993 54.32028198 C-26.5775075 53.97784195 -22.91713593 53.7256461 -19.1875 53.8125 C-20.52059995 41.48132551 -22.49723339 31.26610402 -32.1875 22.8125 C-40.3318095 17.57782146 -48.9131737 15.4250254 -58.5 15.5 C-59.23984131 15.50418945 -59.97968262 15.50837891 -60.74194336 15.51269531 C-66.89904762 15.63871987 -72.41572997 16.59185216 -78.1875 18.8125 C-78.91324219 19.0909375 -79.63898438 19.369375 -80.38671875 19.65625 C-88.75774117 23.35544467 -93.71962534 29.51437135 -97.1875 37.8125 C-98.1775 41.1125 -99.1675 44.4125 -100.1875 47.8125 C-113.7175 47.8125 -127.2475 47.8125 -141.1875 47.8125 C-140.4890951 41.5268559 -139.82581878 36.71106727 -137.625 31 C-137.36396484 30.31494385 -137.10292969 29.6298877 -136.83398438 28.92407227 C-134.1727608 22.26713625 -130.51832993 16.51972729 -126.1875 10.8125 C-125.69507813 10.14863281 -125.20265625 9.48476562 -124.6953125 8.80078125 C-112.22548239 -6.87457017 -91.35374383 -16.41314189 -71.81640625 -18.90625 C-46.1194746 -20.89783136 -20.28290372 -17.28265911 0 0 Z M-25.45922852 85.28393555 C-26.7881588 85.43991463 -26.7881588 85.43991463 -28.14393616 85.5990448 C-32.25862058 86.09207133 -36.37214634 86.59412227 -40.48510742 87.10131836 C-42.63417178 87.3637443 -44.78390895 87.62072708 -46.93432617 87.87182617 C-73.79910132 90.11303232 -73.79910132 90.11303232 -95.796875 103.796875 C-98.14910461 107.31200463 -99.87497321 110.54130059 -100.1875 114.8125 C-100.249375 115.45703125 -100.31125 116.1015625 -100.375 116.765625 C-100.76373929 123.71433982 -99.18707814 130.27834358 -94.609375 135.671875 C-85.43418826 144.02046834 -74.13989653 144.50696349 -62.30419922 143.99169922 C-53.43991773 143.2412514 -46.1413897 139.0710199 -39.1875 133.8125 C-38.300625 133.19375 -37.41375 132.575 -36.5 131.9375 C-25.53106147 121.85793486 -19.78667259 107.17014937 -19.01171875 92.48046875 C-19.00183933 89.91511327 -19.04638272 87.37351727 -19.1875 84.8125 C-21.3199341 84.8125 -23.34066499 85.03514455 -25.45922852 85.28393555 Z " fill="#071233" transform="translate(1197.1875,183.1875)"/>
<path d="M0 0 C14.85 0 29.7 0 45 0 C48.10471977 8.12478905 51.20894227 16.24976709 54.3125 24.375 C55.01687195 26.21892334 55.01687195 26.21892334 55.73547363 28.10009766 C60.93834696 41.72110108 66.13538372 55.34425828 71.30859375 68.9765625 C71.72873245 70.08349457 72.14887115 71.19042664 72.58174133 72.3309021 C74.56182264 77.54856741 76.54044212 82.76678037 78.5168457 87.98583984 C79.24542317 89.9072957 79.97417957 91.82868371 80.703125 93.75 C81.05150925 94.66939362 81.39989349 95.58878723 81.75883484 96.53604126 C83.65275956 101.51739097 85.57996216 106.48370775 87.54492188 111.4375 C87.96296082 112.49356445 88.38099976 113.54962891 88.81170654 114.63769531 C89.61831437 116.67013818 90.42936004 118.70082699 91.24542236 120.72949219 C91.60625916 121.63860352 91.96709595 122.54771484 92.33886719 123.484375 C92.66022644 124.28584961 92.98158569 125.08732422 93.31268311 125.91308594 C94 128 94 128 94 131 C94.66 131 95.32 131 96 131 C96.15411346 130.4462117 96.30822693 129.8924234 96.4670105 129.32185364 C98.70282768 121.56594342 101.51942624 114.05145428 104.3828125 106.51171875 C104.91584942 105.1005708 105.44858234 103.68930798 105.98103333 102.27793884 C107.39928078 98.5210799 108.8216255 94.76578516 110.24485397 91.01081085 C111.71836548 87.12120029 113.1882465 83.23021836 114.65844727 79.33935547 C116.71785711 73.89014118 118.77851185 68.44140082 120.8408289 62.99328613 C124.03323912 54.55966299 127.2172151 46.12291739 130.39453125 37.68359375 C131.55105927 34.61361673 132.70772386 31.5436912 133.86444092 28.4737854 C134.57402517 26.58996251 135.28321955 24.70599271 135.99200439 22.8218689 C136.96061944 20.24786572 137.93121663 17.67461876 138.90234375 15.1015625 C139.17617386 14.37243149 139.45000397 13.64330048 139.73213196 12.89207458 C139.98931503 12.21177689 140.24649811 11.53147919 140.51147461 10.83056641 C140.83685463 9.96692978 140.83685463 9.96692978 141.16880798 9.08584595 C142.38554304 6.03249385 143.70524514 3.02109468 145 0 C159.52 0 174.04 0 189 0 C187.10301693 6.3232769 185.21159745 12.32274548 182.734375 18.390625 C182.42445114 19.16050751 182.11452728 19.93039001 181.79521179 20.72360229 C181.13016421 22.37446002 180.46317979 24.02453862 179.79440308 25.67388916 C177.98548184 30.1357504 176.19143965 34.6036033 174.39453125 39.0703125 C174.02614639 39.98477142 173.65776154 40.89923035 173.2782135 41.84140015 C169.62308264 50.91960197 166.02407186 60.01953752 162.4375 69.125 C161.81594471 70.70191484 161.19436259 72.2788191 160.57275391 73.85571289 C159.3314829 77.00505656 158.09065649 80.15457496 156.85009766 83.30419922 C154.0877666 90.31660643 151.32026519 97.32697294 148.55276489 104.33734131 C147.62355155 106.69116913 146.6944609 109.04504534 145.76538086 111.39892578 C140.65436866 124.347034 135.53642837 137.29239955 130.4175415 150.23739624 C124.83639269 164.35159318 119.26083746 178.46798639 113.69042969 192.58642578 C110.26176796 201.27558962 106.82842354 209.96288422 103.390625 218.6484375 C102.61001885 220.62109091 101.82941985 222.59374714 101.04882812 224.56640625 C99.54829992 228.35837991 98.04685688 232.14998962 96.54492188 235.94140625 C95.85803732 237.67706924 95.17118666 239.41274566 94.484375 241.1484375 C94.17566467 241.9269809 93.86695435 242.70552429 93.54888916 243.50765991 C93.11041656 244.61640976 93.11041656 244.61640976 92.66308594 245.74755859 C92.41298767 246.3790683 92.1628894 247.010578 91.9052124 247.66122437 C90.5754948 251.09678393 89.29350837 254.55064434 88 258 C73.48 258 58.96 258 44 258 C44.68435707 254.57821463 45.22233501 252.14222098 46.51538086 249.04956055 C46.82369339 248.30576141 47.13200592 247.56196228 47.44966125 246.79562378 C47.95217659 245.60321579 47.95217659 245.60321579 48.46484375 244.38671875 C48.81423508 243.54779083 49.1636264 242.70886292 49.52360535 241.84451294 C50.27115136 240.05123333 51.02077152 238.25881719 51.77227783 236.4671936 C52.94127539 233.67849362 54.10310154 230.88690174 55.26318359 228.09448242 C58.58980304 220.09657099 61.93600096 212.10930574 65.38671875 204.1640625 C65.85924072 203.06618408 66.3317627 201.96830566 66.81860352 200.8371582 C67.66414693 198.87949844 68.52194456 196.92706702 69.39428711 194.98120117 C69.94548218 193.70079956 69.94548218 193.70079956 70.5078125 192.39453125 C70.82379395 191.68143799 71.13977539 190.96834473 71.46533203 190.23364258 C72.70051244 185.07352131 70.42192289 180.12831972 68.5065918 175.38500977 C68.12563606 174.43426323 68.12563606 174.43426323 67.73698425 173.46430969 C66.89666707 171.37103764 66.04790084 169.28129922 65.19921875 167.19140625 C64.60104197 165.70506486 64.00346384 164.21848242 63.40644836 162.73167419 C61.82651867 158.80087779 60.23971093 154.87289697 58.65106201 150.94561768 C56.15614482 144.77509498 53.67069 138.60075043 51.18609047 132.42606735 C50.56780309 130.88955807 49.94928016 129.35314356 49.33052635 127.81682205 C44.81201334 116.5934764 40.38907841 105.33689745 36.04255295 94.04593086 C30.75580332 80.31414702 25.30016957 66.65253586 19.8125 53 C16.19936633 44.0035694 12.59401555 35.00408546 9 26 C8.55573669 24.88963379 8.11147339 23.77926758 7.65374756 22.63525391 C6.37166976 19.4256826 5.09684975 16.21332688 3.82421875 13 C3.43659866 12.03215576 3.04897858 11.06431152 2.64961243 10.06713867 C2.29948593 9.17873291 1.94935944 8.29032715 1.58862305 7.375 C1.28039108 6.59898437 0.97215912 5.82296875 0.65458679 5.0234375 C0 3 0 3 0 0 Z " fill="#071233" transform="translate(1236,167)"/>
<path d="M0 0 C15.77103428 13.38029109 23.16895439 30.53424322 26.0390625 50.625 C11.8490625 50.625 -2.3409375 50.625 -16.9609375 50.625 C-18.9409375 44.685 -18.9409375 44.685 -20.9609375 38.625 C-28.12168058 27.39565289 -37.78577262 20.36318789 -50.8359375 17.3125 C-65.72116397 14.86303235 -79.34649036 17.27859889 -91.9609375 25.625 C-104.43810369 34.72834046 -111.37584524 48.50898448 -114.2734375 63.5 C-116.76675619 81.76835427 -114.90245966 102.43979245 -103.4609375 117.5625 C-95.00960913 127.66774425 -85.35701004 135.63900883 -71.9609375 137.625 C-56.60735473 138.67162835 -43.00936899 137.81037474 -30.46875 127.95703125 C-23.03676591 121.04598062 -19.75387238 114.10733721 -15.9609375 104.625 C-1.7709375 104.625 12.4190625 104.625 27.0390625 104.625 C25.03041826 122.70279814 17.62224781 136.68100651 5.0390625 149.625 C4.46414062 150.26179687 3.88921875 150.89859375 3.296875 151.5546875 C-9.99229569 165.86121097 -31.31157877 173.63461682 -50.4753418 174.84741211 C-54.34816997 174.96486239 -58.21133666 175.00496956 -62.0859375 175 C-62.76902985 174.99978851 -63.45212219 174.99957703 -64.15591431 174.99935913 C-79.73627821 174.951254 -92.84804006 172.43122004 -106.9609375 165.625 C-107.85941406 165.20734375 -108.75789063 164.7896875 -109.68359375 164.359375 C-131.22207885 153.57463714 -146.09045703 133.10386655 -153.70703125 110.65234375 C-162.27339047 83.79825136 -159.90270701 53.45716921 -147.296875 28.3046875 C-143.50536174 21.53536474 -139.07488721 15.4516282 -133.9609375 9.625 C-133.30738281 8.87605469 -132.65382813 8.12710938 -131.98046875 7.35546875 C-98.92451448 -28.0571952 -36.95663276 -30.20526241 0 0 Z " fill="#071233" transform="translate(2087.9609375,184.375)"/>
<path d="M0 0 C12.02363701 11.43105713 17.83952351 25.7161881 19.875 42 C6.675 42 -6.525 42 -20.125 42 C-21.775 38.04 -23.425 34.08 -25.125 30 C-31.01827214 22.63340983 -36.68379032 18.52846483 -46.125 17 C-57.63178723 15.96315481 -67.29469081 16.44646054 -77.125 23 C-80.43202386 26.30702386 -81.42679792 29.16416782 -81.5 33.8125 C-81.36790316 38.8028249 -80.48206683 42.24741668 -77.125 46 C-69.08745305 53.38185233 -56.10960874 55.22500886 -45.87109375 57.91796875 C-45.22344055 58.08863358 -44.57578735 58.2592984 -43.9085083 58.43513489 C-40.65010852 59.29254132 -37.38989343 60.13930342 -34.12451172 60.9699707 C-13.87314175 66.22302602 6.22403943 73.51679738 17.4375 92.2578125 C24.33460189 105.41478403 24.75794145 121.65573088 20.96875 135.84765625 C15.27313091 152.26324413 4.39053026 163.76777677 -10.99609375 171.4296875 C-23.31721467 176.96028361 -35.72651765 178.49931582 -49.125 178.375 C-51.00058594 178.39240234 -51.00058594 178.39240234 -52.9140625 178.41015625 C-73.06795688 178.34756652 -91.80119459 172.42480441 -106.6953125 158.6171875 C-119.70173279 144.90533425 -123.64644902 130.58913236 -126.125 112 C-112.925 112 -99.725 112 -86.125 112 C-85.135 115.96 -84.145 119.92 -83.125 124 C-79.7094415 131.62749075 -74.88437552 137.64521117 -67.125 141 C-54.61787509 144.75787469 -41.20738309 145.93759757 -29.25 139.75 C-24.06683999 136.57890747 -21.02196814 133.34920227 -18.8125 127.5625 C-17.52078232 120.86905385 -17.55322438 114.93277984 -21.125 109 C-29.58286562 99.96979761 -43.5707774 97.11713779 -55.0625 94.125 C-105.00390309 80.68782259 -105.00390309 80.68782259 -116.68359375 60.82421875 C-122.74767717 48.94255937 -123.0985347 33.77240119 -119.5625 21 C-114.15486478 6.06733713 -104.24492411 -4.08950165 -90.125 -11 C-62.2629702 -22.72177138 -23.61100832 -19.66975809 0 0 Z " fill="#071233" transform="translate(1558.125,181)"/>
<path d="M0 0 C13.86 0 27.72 0 42 0 C42 15.51 42 31.02 42 47 C57.18 47 72.36 47 88 47 C88 58.55 88 70.1 88 82 C72.82 82 57.64 82 42 82 C42.12005336 98.4385647 42.12005336 98.4385647 42.2578125 114.87695312 C42.31797395 121.58761699 42.37612164 128.29825362 42.421875 135.0090332 C42.45891909 140.42319695 42.5053296 145.83720882 42.55806351 151.25124168 C42.57650629 153.31031806 42.591651 155.36942686 42.60334396 157.42855263 C41.79657995 178.38058184 41.79657995 178.38058184 50.5 196.53125 C58.02186121 202.52088022 66.1749472 202.20845323 75.375 201.484375 C79.62625548 200.91631931 83.81309507 199.93042332 88 199 C88 210.88 88 222.76 88 235 C69.56979248 241.14340251 48.89862587 241.67998842 30.8984375 233.609375 C17.88886311 226.94678973 8.62437061 216.17862686 3.703125 202.33203125 C0.665459 192.25710569 -0.15527795 182.2819839 -0.11352539 171.79858398 C-0.11367142 170.82191269 -0.11381744 169.84524139 -0.1139679 168.838974 C-0.11327653 165.6413239 -0.10552075 162.44373355 -0.09765625 159.24609375 C-0.09578931 157.01693249 -0.09436671 154.78777082 -0.09336853 152.55860901 C-0.08956508 146.71433361 -0.07975348 140.87008338 -0.06866455 135.02581787 C-0.05840359 129.05302267 -0.0538609 123.08022337 -0.04882812 117.10742188 C-0.03812914 105.40493691 -0.02107899 93.70247055 0 82 C-0.90355225 82.00523682 -1.80710449 82.01047363 -2.73803711 82.01586914 C-6.07951489 82.03287686 -9.42094692 82.04543333 -12.76245117 82.05493164 C-14.21070073 82.05997101 -15.65894517 82.06680253 -17.10717773 82.07543945 C-19.18474588 82.08752247 -21.26224697 82.09323211 -23.33984375 82.09765625 C-24.59144287 82.10289307 -25.84304199 82.10812988 -27.13256836 82.11352539 C-30 82 -30 82 -31 81 C-31.08847743 78.47905924 -31.11527301 75.98569107 -31.09765625 73.46484375 C-31.0962413 72.71159317 -31.09482635 71.95834259 -31.09336853 71.18226624 C-31.08775376 68.7673044 -31.07519883 66.35243399 -31.0625 63.9375 C-31.0574869 62.30403779 -31.05292366 60.67057414 -31.04882812 59.03710938 C-31.03862875 55.0246757 -31.01905645 51.01244064 -31 47 C-20.77 47 -10.54 47 0 47 C0 31.49 0 15.98 0 0 Z " fill="#071233" transform="translate(1625,120)"/>
<path d="M0 0 C7.26 0 14.52 0 22 0 C22 43.23 22 86.46 22 131 C14.74 131 7.48 131 0 131 C-0.495 126.545 -0.495 126.545 -1 122 C-1.49886719 122.45890625 -1.99773437 122.9178125 -2.51171875 123.390625 C-11.38257259 130.97146239 -21.19587553 133.73053395 -32.796875 133.32421875 C-46.17688896 131.96990026 -57.0919425 127.24064497 -66 117 C-72.49447008 107.17562744 -75.39088493 96.92039695 -75.3125 85.25 C-75.30686035 84.37037598 -75.3012207 83.49075195 -75.29541016 82.58447266 C-75.08379962 71.19312154 -72.60352203 62.35906579 -66 53 C-65.57074219 52.36320312 -65.14148437 51.72640625 -64.69921875 51.0703125 C-58.05933062 42.2563017 -47.78997858 38.29292065 -37.24609375 36.43359375 C-24.55982198 34.73903759 -13.48209391 37.50384121 -3 45 C-2.34 45.66 -1.68 46.32 -1 47 C-0.67 31.49 -0.34 15.98 0 0 Z M-47.4375 63.375 C-53.54313431 71.30887509 -54.70890582 80.23285315 -54 90 C-52.49819027 98.65449674 -48.55949353 105.44456328 -41.625 110.875 C-35.9697376 114.57458796 -29.67839499 115.58582412 -23 115 C-14.070034 112.85367484 -8.40941691 109.16678822 -3.296875 101.51171875 C1.19144364 92.81898115 1.54300129 81.58994069 -0.9375 72.1875 C-3.65670521 65.39593058 -9.16557729 59.92740744 -15.125 55.875 C-27.1961264 53.14926178 -38.71993262 53.95577476 -47.4375 63.375 Z " fill="#071233" transform="translate(1114,453)"/>
<path d="M0 0 C9.87561814 9.29753317 14.20875662 21.78706916 14.65795898 35.0559082 C14.81152748 49.38600651 12.12692739 62.65684788 2.15234375 73.53125 C-8.49127746 83.59294483 -20.01306307 86.82105578 -34.38671875 86.55859375 C-43.77492621 85.88418432 -53.08581915 82.03918085 -59.8125 75.3125 C-60.1425 89.5025 -60.4725 103.6925 -60.8125 118.3125 C-68.0725 118.3125 -75.3325 118.3125 -82.8125 118.3125 C-82.8125 76.4025 -82.8125 34.4925 -82.8125 -8.6875 C-75.5525 -8.6875 -68.2925 -8.6875 -60.8125 -8.6875 C-60.4825 -5.7175 -60.1525 -2.7475 -59.8125 0.3125 C-58.69875 -0.595 -57.585 -1.5025 -56.4375 -2.4375 C-39.41312869 -15.20577848 -16.3866789 -12.64743674 0 0 Z M-55.26953125 17.296875 C-61.75244251 25.76569072 -62.04913585 36.06170864 -60.8125 46.3125 C-58.79880635 54.57275353 -55.0715604 60.04199391 -47.875 64.5625 C-40.80045454 68.8050404 -33.84788722 69.2432218 -25.875 67.25 C-18.26822151 64.75294202 -13.55012606 60.23324168 -9.875 53.1875 C-5.6610916 44.24544354 -5.52051893 34.04383608 -8.71875 24.73046875 C-11.94709994 17.59350941 -16.64978803 12.30330435 -23.8671875 9.125 C-36.10080765 5.75020823 -46.76326071 8.03146361 -55.26953125 17.296875 Z " fill="#071233" transform="translate(1443.8125,499.6875)"/>
<path d="M0 0 C6.93 0 13.86 0 21 0 C21.33 15.51 21.66 31.02 22 47 C24.64 45.02 27.28 43.04 30 41 C42.56230041 34.42146392 55.7143886 34.95091453 69 39 C80.59404753 44.08100183 87.97053919 51.59316171 92.9921875 63.12890625 C98.4569489 78.69712186 97.68353242 95.76264427 90.75 110.69140625 C85.59165405 120.29003295 77.40625987 127.64851773 67 131 C66.31679688 131.22300781 65.63359375 131.44601562 64.9296875 131.67578125 C53.66219141 134.73172576 41.55999681 134.0042356 31.234375 128.53515625 C24.74140893 124.74140893 24.74140893 124.74140893 22 122 C21.67 124.97 21.34 127.94 21 131 C14.07 131 7.14 131 0 131 C0 87.77 0 44.54 0 0 Z M25.69921875 65.66796875 C19.49170515 74.18724603 19.99366748 84.56612426 21.36328125 94.68359375 C23.11424615 101.36584754 27.9188672 106.51045045 33 111 C40.56800622 115.20758555 47.48618346 116.05032914 55.9375 113.9375 C63.57732613 111.42959355 68.27746051 106.90251936 71.9375 99.8125 C76.02970702 91.003851 76.46214679 81.38644038 73.375 72.125 C70.13305043 64.38034269 65.68109816 59.40110309 57.98046875 55.8828125 C44.54790806 51.90409859 34.28991245 55.22074006 25.69921875 65.66796875 Z " fill="#071233" transform="translate(804,453)"/>
<path d="M0 0 C8.08396722 7.10860103 13.36295532 15.86539766 14.91015625 26.6796875 C15.00245749 29.27498105 15.05014854 31.83602196 15.03515625 34.4296875 C15.03902344 35.11417969 15.04289062 35.79867187 15.046875 36.50390625 C15.03687686 41.55296689 15.03687686 41.55296689 13.91015625 42.6796875 C11.76272076 42.77394345 9.61214599 42.79711398 7.46264648 42.79321289 C6.45293289 42.79343193 6.45293289 42.79343193 5.42282104 42.7936554 C3.18809841 42.79295628 0.95345815 42.78516402 -1.28125 42.77734375 C-2.82681737 42.77547956 -4.37238532 42.77405566 -5.91795349 42.77305603 C-9.99341452 42.7692309 -14.06884012 42.75940067 -18.14428711 42.74835205 C-22.29996257 42.73813782 -26.45564374 42.73355839 -30.61132812 42.72851562 C-38.77084962 42.71777839 -46.93034228 42.70070204 -55.08984375 42.6796875 C-54.49998599 44.75428803 -53.89719701 46.82521446 -53.2890625 48.89453125 C-52.95479248 50.04816162 -52.62052246 51.20179199 -52.27612305 52.39038086 C-49.97367376 58.77459556 -45.92743137 63.01787498 -39.96484375 66.1796875 C-32.62395411 68.98576136 -24.30772127 68.93072538 -17.02734375 65.9921875 C-11.85739017 63.31252291 -9.66352971 59.82705941 -7.08984375 54.6796875 C-0.15984375 54.6796875 6.77015625 54.6796875 13.91015625 54.6796875 C12.46648309 64.78539965 7.93206884 73.02639141 -0.23828125 79.33984375 C-11.82980131 86.97374127 -25.84545757 88.26046001 -39.35546875 86.17578125 C-51.36657279 83.48098227 -60.31387059 78.34602654 -68.08984375 68.6796875 C-76.57717269 55.0543681 -78.23963807 39.70308806 -75.4375 24.03125 C-71.38191011 10.76790451 -63.40359477 0.88465575 -51.27734375 -5.6328125 C-34.40131499 -13.60322911 -14.6520973 -11.71002608 0 0 Z M-49.08984375 14.6796875 C-51.8748413 18.47505626 -54.08984375 21.90586831 -54.08984375 26.6796875 C-38.57984375 26.6796875 -23.06984375 26.6796875 -7.08984375 26.6796875 C-9.08068765 17.1152761 -9.08068765 17.1152761 -15.08984375 10.6796875 C-26.56135613 4.06150728 -39.42352381 5.96897333 -49.08984375 14.6796875 Z " fill="#071233" transform="translate(1228.08984375,499.3203125)"/>
<path d="M0 0 C1.051875 0.721875 2.10375 1.44375 3.1875 2.1875 C15.74807651 14.74807651 16 26.29509082 16 44 C-7.1 44 -30.2 44 -54 44 C-50.09212978 57.055539 -50.09212978 57.055539 -41 66 C-33.33347888 69.76601037 -24.86994825 70.48048212 -16.625 67.9375 C-12.35338096 66.07368292 -9.52779448 62.84854523 -7 59 C-6.505 57.515 -6.505 57.515 -6 56 C1.26 56 8.52 56 16 56 C12.64569104 67.18102986 8.85625064 75.39631207 -1 82 C-14.43394602 88.82303048 -29.66318731 90.26216429 -44.1875 86.0390625 C-56.88374736 81.34850445 -64.94563931 74.03511212 -71 62 C-76.47358866 48.75263755 -76.89774665 33.48735535 -72 20 C-67.0722819 8.39143333 -58.51740487 -1.07427667 -46.74609375 -5.9296875 C-30.9254766 -11.55122659 -13.72438627 -9.90498378 0 0 Z M-45 14 C-49.56824685 18.67448515 -50.54476962 21.452719 -53 28 C-37.49 28 -21.98 28 -6 28 C-7.06071028 19.51431772 -8.06013326 17.34834474 -14 12 C-23.33219131 5.5711571 -36.45134116 7.00564277 -45 14 Z " fill="#071233" transform="translate(1628,498)"/>
<path d="M0 0 C13.92682129 -0.61329121 25.62091027 3.97325032 35.81640625 13.21875 C46.96939544 24.86610927 47.06640625 37.49110616 47.06640625 53.15625 C23.96640625 53.15625 0.86640625 53.15625 -22.93359375 53.15625 C-18.1579235 67.8673566 -18.1579235 67.8673566 -6.93359375 76.90625 C-0.09467287 79.60896764 8.3042812 79.23383844 15.06640625 76.53125 C20.05419613 73.95483648 23.26558541 70.55871252 25.06640625 65.15625 C32.32640625 65.15625 39.58640625 65.15625 47.06640625 65.15625 C43.56809063 76.81730208 38.84692279 86.19977151 27.9765625 92.3359375 C14.30807279 98.91795188 -1.70327004 99.00510104 -15.93359375 94.15625 C-26.17528741 90.50245659 -35.17270873 81.85655322 -39.93359375 72.15625 C-45.97055491 57.44115718 -45.94298988 41.16458965 -39.83203125 26.515625 C-34.50612675 15.03915982 -26.14764405 7.30972449 -14.24609375 2.78125 C-9.48380484 1.21831086 -4.99285267 0.40346284 0 0 Z M-16.23828125 25.1796875 C-19.09284967 28.50782487 -21.93359375 32.63983087 -21.93359375 37.15625 C-6.42359375 37.15625 9.08640625 37.15625 25.06640625 37.15625 C24.00452609 28.66120876 23.00393441 26.51360389 17.06640625 21.15625 C6.57018093 13.76118216 -7.42940499 16.79877284 -16.23828125 25.1796875 Z " fill="#071233" transform="translate(1297.93359375,488.84375)"/>
<path d="M0 0 C7.59 0 15.18 0 23 0 C25.55954859 6.73624269 28.11610213 13.47360439 30.66759205 20.21290398 C31.85283204 23.34315257 33.03967896 26.4727693 34.22875977 29.6015625 C35.59977093 33.2097134 36.96630846 36.8195321 38.33203125 40.4296875 C38.96501884 42.09123367 38.96501884 42.09123367 39.61079407 43.78634644 C42.00362441 50.12642101 44.1609048 56.47692269 46 63 C46.66 63 47.32 63 48 63 C48.15057861 62.02873169 48.15057861 62.02873169 48.30419922 61.0378418 C49.22698664 57.00898429 50.66734861 53.25398169 52.1328125 49.39453125 C52.44773651 48.55645432 52.76266052 47.71837738 53.08712769 46.85490417 C54.09616977 44.17273776 55.11061515 41.49264968 56.125 38.8125 C56.78418419 37.06067102 57.44304132 35.30871894 58.1015625 33.55664062 C62.32401683 22.34057465 66.63904078 11.16292289 71 0 C78.26 0 85.52 0 93 0 C92.2988657 3.50567149 91.65877617 6.17362686 90.38378906 9.40820312 C90.05045059 10.259785 89.71711212 11.11136688 89.37367249 11.98875427 C89.00801682 12.91027786 88.64236115 13.83180145 88.265625 14.78125 C87.87994858 15.76275528 87.49427216 16.74426056 87.09690857 17.75550842 C85.81865853 21.00528458 84.53437962 24.25264202 83.25 27.5 C82.35490804 29.77192934 81.46013766 32.0439854 80.56567383 34.31616211 C77.71722158 41.54679037 74.85975929 48.77383736 72 56 C71.52197937 57.20795227 71.04395874 58.41590454 70.55145264 59.66046143 C66.39541097 70.16090688 62.23760771 80.66065258 58.06933594 91.15625 C53.33252477 103.08637354 48.63639843 115.03045858 44 127 C36.74 127 29.48 127 22 127 C22.83652467 121.98085197 23.69920946 119.08305948 25.828125 114.640625 C26.37984375 113.44179688 26.9315625 112.24296875 27.5 111.0078125 C28.37039131 109.12686551 29.24897663 107.25210753 30.15429688 105.38769531 C31.03315414 103.56747999 31.87027165 101.73225845 32.703125 99.890625 C33.21520508 98.80813477 33.72728516 97.72564453 34.25488281 96.61035156 C35.33551227 91.3743265 33.88116955 87.91569359 32 83 C31.54385315 81.80143372 31.0877063 80.60286743 30.61773682 79.36798096 C29.24291987 75.80953238 27.82858244 72.26775695 26.40382385 68.72904968 C25.44931681 66.35797636 24.50031563 63.98476219 23.5526123 61.61096191 C21.53982166 56.57206792 19.52041981 51.53583895 17.5 46.5 C15.15610883 40.65791786 12.8150447 34.81473522 10.48109436 28.96867371 C9.55235766 26.64652611 8.61853007 24.3264713 7.68444824 22.00646973 C7.10773925 20.56365876 6.53127031 19.12075181 5.95507812 17.67773438 C5.69940567 17.04679367 5.44373322 16.41585297 5.18031311 15.76579285 C3.10764355 10.54985058 1.63260441 5.44201471 0 0 Z " fill="#071232" transform="translate(904,491)"/>
<path d="M0 0 C6.66642383 6.11325249 8.70121622 12.6155448 9.9609375 21.43359375 C3.3609375 21.43359375 -3.2390625 21.43359375 -10.0390625 21.43359375 C-11.3590625 18.79359375 -12.6790625 16.15359375 -14.0390625 13.43359375 C-19.85360756 9.42356267 -25.04025542 8.42875667 -32.0390625 9.43359375 C-35.85943452 10.94358541 -35.85943452 10.94358541 -39.0390625 13.43359375 C-39.57815252 18.34299074 -39.57815252 18.34299074 -37.37890625 22.54296875 C-34.69562191 24.71109834 -32.60730861 25.45731278 -29.2890625 26.37109375 C-28.144375 26.70109375 -26.9996875 27.03109375 -25.8203125 27.37109375 C-23.94859375 27.89703125 -23.94859375 27.89703125 -22.0390625 28.43359375 C2.5453204 35.50516335 2.5453204 35.50516335 8.9609375 45.43359375 C12.48441818 52.39550558 12.18688781 62.02017264 10.12109375 69.45703125 C6.50426068 77.37265919 0.74390324 82.48756636 -7.2265625 85.80859375 C-18.67631141 90.0629431 -31.63341657 89.71071097 -43.0390625 85.43359375 C-51.45852462 81.32910596 -57.77506269 74.59116764 -60.9765625 65.74609375 C-62.1578373 61.9900643 -62.0390625 59.67315372 -62.0390625 55.43359375 C-55.4390625 55.43359375 -48.8390625 55.43359375 -42.0390625 55.43359375 C-41.0490625 58.07359375 -40.0590625 60.71359375 -39.0390625 63.43359375 C-37.03675728 66.6096641 -35.72371573 68.09922822 -32.3515625 69.74609375 C-25.20180887 71.23000488 -19.46843385 71.03404171 -13.0390625 67.43359375 C-10.32658487 64.98361396 -10.0709535 63.65284439 -9.5390625 59.99609375 C-9.7789086 56.39566126 -9.7789086 56.39566126 -11.8515625 53.74609375 C-17.39460854 49.72466819 -23.68463388 48.08540926 -30.21875 46.25 C-51.52211622 40.26424152 -51.52211622 40.26424152 -58.0390625 30.43359375 C-61.06239133 24.38693608 -60.91302218 17.23919033 -59.421875 10.74609375 C-56.86202726 3.31573924 -52.49647898 -1.3101831 -45.5078125 -4.84765625 C-30.64198299 -11.11637954 -13.03229317 -10.01139763 0 0 Z " fill="#071233" transform="translate(1531.0390625,497.56640625)"/>
<path d="M0 0 C7.26 0 14.52 0 22 0 C22 7.59 22 15.18 22 23 C29.26 23 36.52 23 44 23 C44 28.61 44 34.22 44 40 C36.74 40 29.48 40 22 40 C22.07399315 47.17223276 22.15682222 54.34321716 22.26245117 61.51489258 C22.29569417 63.95427983 22.32372801 66.39374388 22.34643555 68.83325195 C22.37999217 72.34099032 22.43231049 75.84802525 22.48828125 79.35546875 C22.49467117 80.44522507 22.5010611 81.53498138 22.50764465 82.65776062 C22.52996645 89.8680322 22.52996645 89.8680322 26 96 C29.68397116 98.45598077 32.44723808 98.2271532 36.6875 98.125 C39.100625 98.08375 41.51375 98.0425 44 98 C44 103.94 44 109.88 44 116 C33.15749823 119.09785765 22.87655799 119.31895623 12.77734375 113.78125 C6.69801319 109.69048551 3.05736515 104.45831788 1.36184692 97.30926514 C0.18204295 90.25551648 -0.26996171 83.47303733 -0.1953125 76.328125 C-0.1924826 75.27969421 -0.18965271 74.23126343 -0.18673706 73.15106201 C-0.17567322 69.85058455 -0.15059568 66.55039339 -0.125 63.25 C-0.11495233 60.99219146 -0.10582964 58.7343786 -0.09765625 56.4765625 C-0.07577931 50.98426716 -0.04134721 45.49218186 0 40 C-4.95 40 -9.9 40 -15 40 C-15 34.39 -15 28.78 -15 23 C-10.05 23 -5.1 23 0 23 C0 15.41 0 7.82 0 0 Z " fill="#071133" transform="translate(1665,468)"/>
</svg>
