<svg width="617.8" height="70.7" viewBox="0 0 617.8 70.7" xmlns="http://www.w3.org/2000/svg"><g id="svgGroup" stroke-linecap="round" fill-rule="evenodd" font-size="10pt" stroke="#70052c" stroke-width="0mm" style="stroke:#70052c;stroke-width:0.1mm;fill:#d2046b"><path d="M 13.4 9 L 12.2 10 L 24.3 22.1 L 25.2 21.5 C 27.9 19.8 31.1 18.9 34.4 18.9 C 39 18.9 43.3 20.7 46.6 24 C 49.9 27.3 51.7 31.6 51.7 36.2 C 51.7 39.5 50.8 42.7 49.1 45.4 L 48.5 46.3 L 60.6 58.4 L 61.6 57.2 C 66.3 51.1 68.8 43.8 68.8 36.1 C 68.8 26.9 65.2 18.3 58.7 11.8 L 58.8 11.9 C 52.3 5.4 43.7 1.8 34.5 1.8 C 26.8 1.8 19.5 4.3 13.4 9 Z M 19.7 26.8 L 20.3 25.9 L 8.2 13.8 L 7.2 15 C 2.5 21.1 0 28.4 0 36.1 C 0 45.3 3.6 53.9 10.1 60.4 C 16.6 66.9 25.2 70.5 34.4 70.5 C 42.1 70.5 49.4 68 55.5 63.3 L 56.7 62.3 L 44.6 50.2 L 43.6 50.7 C 40.9 52.4 37.7 53.3 34.4 53.3 C 29.8 53.3 25.5 51.5 22.2 48.2 C 18.9 44.9 17.1 40.6 17.1 36 C 17.1 32.7 18 29.5 19.7 26.8 Z" id="0" vector-effect="non-scaling-stroke"/><path d="M 144.8 1.9 L 113.1 33.6 L 81.4 1.9 L 78.7 1.9 L 78.7 23.3 L 95.7 40.3 L 113 57.7 L 130.3 40.3 L 130.3 70.6 L 147.3 70.6 L 147.3 1.9 L 144.8 1.9 Z M 78.8 70.6 L 95.8 70.6 L 95.8 48.1 L 78.8 31.1 L 78.8 70.6 Z" id="1" vector-effect="non-scaling-stroke"/><path d="M 204.2 16.6 L 203.8 17 L 203.8 45.6 L 160.6 2.4 L 160.2 2 L 157.5 2 L 157.5 23.4 L 174.5 40.4 L 185.4 51.3 L 204.1 70 L 204.8 70.7 L 220.8 70.7 L 220.8 0 L 204.2 16.6 Z M 157.5 70.6 L 174.5 70.6 L 174.5 48.1 L 157.5 31.1 L 157.5 70.6 Z" id="2" vector-effect="non-scaling-stroke"/><path d="M 244.1 9 L 242.9 10 L 255 22.1 L 255.9 21.5 C 258.6 19.8 261.8 18.9 265.1 18.9 C 269.7 18.9 274 20.7 277.3 24 C 280.6 27.3 282.4 31.6 282.4 36.2 C 282.4 39.5 281.5 42.7 279.8 45.4 L 279.2 46.3 L 291.3 58.4 L 292.3 57.2 C 297 51.1 299.5 43.8 299.5 36.1 C 299.5 26.9 295.9 18.3 289.4 11.8 L 289.5 11.9 C 283 5.4 274.4 1.8 265.2 1.8 C 257.5 1.8 250.2 4.3 244.1 9 Z M 250.4 26.8 L 251 25.9 L 238.9 13.8 L 237.9 15 C 233.2 21.1 230.7 28.4 230.7 36.1 C 230.7 45.3 234.3 53.9 240.8 60.4 C 247.3 66.9 255.9 70.5 265.1 70.5 C 272.8 70.5 280.1 68 286.2 63.3 L 287.4 62.3 L 275.3 50.2 L 274.3 50.7 C 271.6 52.4 268.4 53.3 265.1 53.3 C 260.5 53.3 256.2 51.5 252.9 48.2 C 249.6 44.9 247.8 40.6 247.8 36 C 247.8 32.7 248.7 29.5 250.4 26.8 Z" id="3" vector-effect="non-scaling-stroke"/><path d="M 328.3 0 L 309.5 0 L 343 70.6 L 352.1 51.5 L 352.4 50.9 L 336.7 17.7 L 328.3 0 Z M 357.7 0.1 L 346.4 24 L 346.1 24.6 L 355.5 44.5 L 357.3 40.8 L 376.6 0.1 L 357.7 0.1 Z" id="4" vector-effect="non-scaling-stroke" transform="translate(-12, 0)"/><path d="M 411.621 1.1 L 411.951 1.1 L 412.391 1.1 A 1.769 1.769 0 0 0 412.431 1.192 Q 412.608 1.571 412.707 1.166 A 1.615 1.615 0 0 0 412.721 1.1 L 446.821 72.38 L 430.431 72.38 L 425.921 62.7 L 401.281 62.7 L 407.221 49.83 L 419.871 49.83 L 404.361 16.06 A 347.032 347.032 0 0 0 409.799 5.02 A 399.887 399.887 0 0 0 411.621 1.1 Z M 393.911 72.05 L 393.801 72.38 L 377.521 72.38 L 402.821 18.81 L 410.741 36.19 L 405.131 48.29 L 405.021 48.29 Q 397.14 65.398 395.725 68.398 A 35.027 35.027 0 0 1 395.451 68.97 L 393.911 72.05 Z" id="5" vector-effect="non-scaling-stroke" transform="translate(-31, 0)"/><path d="M 548.4 0.7 L 538.5 17 L 566.8 63.9 L 570.9 70.7 L 590.8 70.7 L 548.4 0.7 Z M 505.9 70.6 L 525.8 70.6 L 545.2 38.7 L 535.3 22.3 L 505.9 70.6 Z" id="7" vector-effect="non-scaling-stroke" transform="translate(-50, 0)"/><path d="M 600.8 70.6 L 617.8 70.6 L 617.8 35.2 L 600.8 18.2 L 600.8 70.6 Z M 600.8 1.9 L 600.8 10.4 L 617.8 27.4 L 617.8 1.9 L 600.8 1.9 Z" id="8" vector-effect="non-scaling-stroke" transform="translate(-56, 0)" /></g></svg>